<?xml version="1.0" encoding="utf-8"?>
<!-- Generator: Adobe Illustrator 19.0.0, SVG Export Plug-In . SVG Version: 6.00 Build 0)  -->
<svg version="1.1" id="Layer_1" xmlns="http://www.w3.org/2000/svg" xmlns:xlink="http://www.w3.org/1999/xlink" x="0px" y="0px"
	 viewBox="-147 270.9 300 300" style="enable-background:new -147 270.9 300 300;" xml:space="preserve">
<style type="text/css">
	.st0{fill:#A2A5AE;}
</style>
<title></title>
<path class="st0" d="M141.8,420.9c-0.5,57.9-37,111.1-91.9,130.7c-55.5,19.5-117.3,2.6-154.7-42.8c-36.9-44.7-41.4-109.7-11.8-159.4
	c29.9-50,89.9-76.8,147-65C94.8,297.7,141.4,355.3,141.8,420.9c0,5.7,9.1,5.9,9.1,0c-0.5-61.5-38.8-117.3-96.6-138.9
	c-58.2-21.8-126-3.5-165.5,44.3s-45.2,117.1-13.3,170.5c31.7,53,94.6,81,155.3,69.5c69.2-13.1,119.5-75.4,120-145.4
	C150.9,415,141.8,415,141.8,420.9z"/>
</svg>
