<?xml version="1.0" encoding="utf-8"?>
<!-- Generator: Adobe Illustrator 19.0.0, SVG Export Plug-In . SVG Version: 6.00 Build 0)  -->
<svg version="1.1" id="Capa_1" xmlns:sketch="http://www.bohemiancoding.com/sketch/ns"
	 xmlns="http://www.w3.org/2000/svg" xmlns:xlink="http://www.w3.org/1999/xlink" x="0px" y="0px" viewBox="-289 415.2 16 11.3"
	 style="enable-background:new -289 415.2 16 11.3;" xml:space="preserve">
<style type="text/css">
	.st0{fill:#A2A5AE;}
</style>
<title></title>
<g id="Icons_with_numbers">
	<g id="Group" transform="translate(-240.000000, -480.000000)">
		<path id="Rectangle_153_copy" class="st0" d="M-45,895.2h8c2.2,0,4,1.3,4,2.8v5.7c0,1.6-1.8,2.8-4,2.8h-8c-2.2,0-4-1.3-4-2.8V898
			C-49,896.5-47.2,895.2-45,895.2z M-45,895.9c-1.7,0-3,1-3,2.1v5.7c0,1.2,1.3,2.1,3,2.1h8c1.7,0,3-1,3-2.1V898c0-1.2-1.3-2.1-3-2.1
			H-45z"/>
	</g>
</g>
</svg>
