<?xml version="1.0" encoding="utf-8"?>
<!-- Generator: Adobe Illustrator 19.0.0, SVG Export Plug-In . SVG Version: 6.00 Build 0)  -->
<svg version="1.1" id="Layer_1" xmlns="http://www.w3.org/2000/svg" xmlns:xlink="http://www.w3.org/1999/xlink" x="0px" y="0px"
	 viewBox="-118 321.1 242.1 106.2" style="enable-background:new -118 321.1 242.1 106.2;" xml:space="preserve">
<style type="text/css">
	.st0{fill:#A2A5AE;}
</style>
<title></title>
<path class="st0" d="M0.4,323.3l40,35l63.4,55.4l14.6,12.8l2.6-2.3h-236.1l2.6,2.3l40-35l63.4-55.4l14.6-12.8
	c1.9-1.7-3.3-3.2-5.2-1.5l-40,35l-63.4,55.4l-14.6,12.8c-0.8,0.7-0.3,1.6,1.1,2.1c0.5,0.1,1,0.2,1.5,0.2H121c1.7,0,3-0.7,3-1.5
	c0-0.3-0.1-0.5-0.4-0.8l-40-35l-63.4-55.5L5.6,321.8C3.6,320.1-1.6,321.7,0.4,323.3z"/>
</svg>
