<?xml version="1.0" encoding="utf-8"?>
<!-- Generator: Adobe Illustrator 19.0.0, SVG Export Plug-In . SVG Version: 6.00 Build 0)  -->
<svg version="1.1" id="Capa_1" xmlns="http://www.w3.org/2000/svg" xmlns:xlink="http://www.w3.org/1999/xlink" x="0px" y="0px"
	 viewBox="0 0 184 38" style="enable-background:new 0 0 184 38;" xml:space="preserve">
<style type="text/css">
	.st0{display:none;fill-rule:evenodd;clip-rule:evenodd;fill:#FFFFFF;}
	.st1{fill:#A1A4AD;}
</style>
<g>
	<polygon class="st0" points="-3,-76.5 189.8,-76.5 189.8,116.3 -3,116.3 -3,-76.5 	"/>
	<polygon class="st1" points="60.9,5 60.9,5 60.9,4.9 5.5,4.9 5.5,7.3 58.5,7.3 58.5,18.7 6.5,18.7 6.5,18.7 5.5,18.7 5.5,34.9 
		8.8,34.9 8.8,21.1 60.9,21.1 60.9,21.1 60.9,21.1 60.9,5 	"/>
	<polygon class="st1" points="118.6,4.9 87.7,4.9 87.7,4.9 87.7,4.9 87.7,32.5 60,32.5 60,34.9 90.9,34.9 90.9,7.3 118.6,7.3 
		118.6,4.9 	"/>
	<polygon class="st1" points="181.3,5 181.2,5 181.2,4.9 125.9,4.9 125.9,7.3 178.8,7.3 178.8,18.7 126.8,18.7 126.8,18.7 
		125.8,18.7 125.8,34.9 129.2,34.9 129.2,21.1 181.2,21.1 181.2,21.1 181.3,21.1 181.3,5 	"/>
</g>
</svg>
