<?xml version="1.0" encoding="utf-8"?>
<!-- Generator: Adobe Illustrator 19.0.0, SVG Export Plug-In . SVG Version: 6.00 Build 0)  -->
<svg version="1.1" id="Layer_1" xmlns="http://www.w3.org/2000/svg" xmlns:xlink="http://www.w3.org/1999/xlink" x="0px" y="0px"
	 viewBox="-147 289.7 300 262.3" style="enable-background:new -147 289.7 300 262.3;" xml:space="preserve">
<style type="text/css">
	.st0{fill:#A2A5AE;}
</style>
<title></title>
<path class="st0" d="M-0.2,295.4l49.4,86.3l78.3,137l18,31.5l3.2-5.6h-291.6l3.2,5.6l49.4-86.3l78.3-137l18-31.6
	c2.3-4.2-4.1-7.9-6.4-3.7l-49.4,86.3l-78.3,137l-18,31.6c-1,1.7-0.4,4.1,1.4,5.1c0.6,0.4,1.2,0.5,1.9,0.5h291.6
	c2.1,0,3.7-1.6,3.7-3.7c0-0.6-0.1-1.2-0.5-1.9l-49.4-86.3l-78.3-137l-18-31.5C3.8,287.5-2.6,291.2-0.2,295.4z"/>
</svg>
