<?xml version="1.0" encoding="utf-8"?>
<!-- Generator: Adobe Illustrator 19.0.0, SVG Export Plug-In . SVG Version: 6.00 Build 0)  -->
<svg version="1.1" id="Layer_1" xmlns="http://www.w3.org/2000/svg" xmlns:xlink="http://www.w3.org/1999/xlink" x="0px" y="0px"
	 viewBox="7.9 81 360.1 417.5" style="enable-background:new 7.9 81 360.1 417.5;" xml:space="preserve">
<style type="text/css">
	.st0{fill:#A2A5AE;}
	.st1{display:none;fill:#A2A5AE;}
</style>
<g id="XMLID_429_">
	<path id="XMLID_433_" class="st0" d="M302.1,241.3C250.1,162.4,174.6,107.9,91,81l-8.8,43.1c72.7,24.5,138.1,72.5,183.4,141.3
		s63.7,147.9,57.5,224.3l43.1,8.8C374.4,411,354.1,320.2,302.1,241.3z"/>
	<path id="XMLID_432_" class="st0" d="M71.9,174.2l-8.9,43.4c49,18.9,92.8,52.6,123.8,99.7s44.7,100.6,42.8,153.1l43.4,8.9
		c3.8-63.6-12.1-128.8-49.8-186S131.8,195.8,71.9,174.2z"/>
	<path id="XMLID_431_" class="st0" d="M52.6,268.1l-9,43.9c25.3,12.7,47.7,31.9,64.3,57.2c16.6,25.2,25.5,53.4,27.2,81.6l43.9,9
		c-0.2-39.5-11.3-79.4-34.7-114.8S88.8,283.9,52.6,268.1z"/>
	<circle id="XMLID_430_" class="st1" cx="52.1" cy="420.8" r="44.2"/>
	<rect x="7.9" y="376.6" class="st0" width="88.4" height="88.4"/>
</g>
</svg>
