<?xml version="1.0" encoding="utf-8"?>
<!-- Generator: Adobe Illustrator 19.0.0, SVG Export Plug-In . SVG Version: 6.00 Build 0)  -->
<svg version="1.1" id="Layer_1" xmlns="http://www.w3.org/2000/svg" xmlns:xlink="http://www.w3.org/1999/xlink" x="0px" y="0px"
	 viewBox="-35 235.8 500 370.2" style="enable-background:new -35 235.8 500 370.2;" xml:space="preserve">
<style type="text/css">
	.st0{fill:#A2A5AE;}
	.st1{display:none;fill:#A2A5AE;}
</style>
<g id="XMLID_429_">
	<path id="XMLID_433_" class="st0" d="M215,235.8c-94.5,0-181.5,33-250,88l31.1,31.1c60.4-47.2,136.5-75.4,218.9-75.4
		s158.5,28.2,218.9,75.4l31.1-31.1C396.5,268.8,309.5,235.8,215,235.8z"/>
	<path id="XMLID_432_" class="st0" d="M32.3,391.1l31.3,31.3c42.8-30.5,95-48.5,151.4-48.5s108.6,18,151.4,48.5l31.3-31.3
		c-51-38.2-114.2-60.8-182.7-60.8S83.3,352.9,32.3,391.1z"/>
	<path id="XMLID_431_" class="st0" d="M100.1,458.9l31.7,31.7c24.5-14.1,52.9-22.2,83.1-22.2s58.6,8.1,83.1,22.2l31.7-31.7
		c-33.1-21.6-72.5-34.2-114.9-34.2S133.2,437.3,100.1,458.9z"/>
	<circle id="XMLID_430_" class="st1" cx="215" cy="561.8" r="44.2"/>
	<rect x="170.8" y="517.6" class="st0" width="88.4" height="88.4"/>
</g>
</svg>
